<?xml version="1.0" standalone="no"?>
<!DOCTYPE svg PUBLIC "-//W3C//DTD SVG 20010904//EN"
 "http://www.w3.org/TR/2001/REC-SVG-20010904/DTD/svg10.dtd">
<svg version="1.0" xmlns="http://www.w3.org/2000/svg"
 width="256.000000pt" height="256.000000pt" viewBox="0 0 256.000000 256.000000"
 preserveAspectRatio="xMidYMid meet">
<metadata>
Created by potrace 1.14, written by Peter Selinger 2001-2017
</metadata>
<g transform="translate(0.000000,256.000000) scale(0.100000,-0.100000)"
fill="#000000" stroke="none">
<path d="M350 2535 c-27 -71 -42 -204 -37 -327 l5 -127 -62 -20 c-33 -11 -88
-27 -121 -37 -33 -9 -72 -28 -88 -42 -24 -23 -27 -33 -27 -91 0 -73 18 -121
72 -199 44 -63 109 -144 128 -159 16 -13 133 -48 191 -57 29 -5 38 -12 43 -32
4 -15 39 -58 79 -98 120 -118 165 -188 231 -352 27 -69 27 -72 12 -117 -13
-40 -14 -52 -2 -91 15 -48 54 -105 118 -170 58 -59 53 -96 -48 -405 -35 -106
-64 -198 -64 -202 0 -5 11 -9 24 -9 21 0 26 9 50 98 15 53 38 116 51 138 22
38 32 44 94 63 38 12 98 37 133 57 34 20 90 47 123 61 134 56 242 129 383 259
71 64 73 66 90 47 9 -10 40 -36 69 -56 61 -45 109 -98 253 -288 126 -165 235
-341 226 -364 -4 -11 1 -15 19 -15 29 0 31 10 9 53 -29 55 -166 280 -198 325
-179 246 -192 262 -291 335 -85 63 -85 63 -110 110 -10 21 -38 52 -60 68 l-42
30 -12 125 c-9 90 -10 128 -2 138 6 7 59 38 118 70 60 31 115 61 123 66 52 32
127 60 159 60 61 0 177 38 248 81 81 49 203 170 203 202 0 29 -67 129 -127
191 -50 50 -90 76 -118 76 -14 0 -14 5 5 35 30 49 38 117 28 252 -9 126 -19
194 -46 286 -14 48 -20 57 -39 57 -28 0 -28 -1 -4 -42 38 -63 52 -146 58 -318
4 -150 3 -168 -15 -200 -18 -32 -24 -35 -70 -38 -59 -3 -79 5 -177 78 -38 29
-99 67 -135 86 -36 18 -92 48 -125 67 -156 87 -383 157 -507 157 -91 0 -248
-22 -363 -51 -110 -28 -329 -113 -385 -149 -26 -17 -52 -30 -58 -30 -9 0 -12
41 -12 143 1 128 13 227 35 280 5 12 2 17 -9 17 -9 0 -21 -11 -26 -25z m985
-236 c139 -40 211 -70 408 -170 49 -25 57 -33 52 -50 -6 -18 -4 -20 13 -15 11
4 26 1 33 -6 8 -7 27 -19 42 -26 15 -6 25 -17 22 -22 -9 -15 -32 -12 -60 6
-13 9 -62 24 -107 34 -115 25 -206 57 -182 63 31 8 -257 6 -311 -2 -28 -4 16
-6 100 -3 158 5 191 -1 281 -47 21 -11 77 -27 124 -37 47 -9 94 -23 105 -30
24 -17 52 -18 58 -1 3 9 11 8 33 -5 16 -9 49 -26 73 -38 l43 -21 -7 -57 c-16
-135 -94 -399 -130 -438 -19 -20 -30 -23 -86 -22 -55 2 -60 3 -38 12 14 6 33
17 43 25 14 12 16 11 16 -4 0 -10 3 -16 6 -12 3 3 3 15 -1 26 -6 20 -7 20 -26
2 -34 -31 -100 -36 -151 -10 -45 22 -78 47 -78 59 0 4 12 12 26 19 27 12 60 5
154 -31 14 -6 27 -9 29 -8 2 1 8 -4 12 -12 7 -10 9 -10 9 3 0 9 -17 24 -39 34
-35 16 -39 21 -35 45 5 23 2 28 -18 32 -33 6 -143 -45 -163 -76 -16 -24 -16
-28 -2 -50 21 -32 70 -61 137 -80 85 -25 88 -30 38 -58 -24 -14 -70 -38 -103
-53 -33 -16 -71 -36 -85 -45 -14 -9 -45 -18 -69 -19 -78 -4 -152 -36 -198 -86
-42 -45 -65 -99 -98 -230 -27 -104 -86 -263 -107 -284 -12 -14 -31 -21 -56
-21 -33 0 -48 10 -124 81 -99 91 -127 143 -108 194 l12 30 19 -25 c69 -88 149
-150 193 -150 19 0 98 70 129 114 l21 31 -24 -20 c-19 -16 -22 -17 -17 -3 11
31 -5 26 -48 -18 -66 -66 -103 -60 -188 28 -53 55 -54 50 15 128 l47 53 12
-26 c7 -15 23 -34 36 -42 23 -15 32 -45 14 -45 -5 0 -17 -3 -27 -7 -13 -5 -16
-3 -11 10 16 41 -29 5 -53 -43 l-13 -25 26 24 c25 23 104 41 92 21 -4 -6 -1
-11 4 -11 20 -3 26 -5 47 -17 25 -13 34 -7 34 22 0 23 -37 66 -57 66 -15 0
-123 106 -123 121 0 5 10 13 23 18 77 30 129 95 167 205 l16 49 26 -45 c31
-51 110 -128 133 -128 21 0 7 25 -40 77 -19 21 -46 59 -60 84 -38 71 -95 235
-95 277 -1 20 -7 48 -15 62 -8 14 -15 48 -16 75 l-2 50 -8 -60 c-5 -33 -6 -88
-3 -122 4 -38 2 -63 -3 -63 -6 0 -29 14 -53 31 -32 23 -45 28 -54 19 -8 -9 -5
-16 14 -28 80 -54 103 -79 126 -136 30 -73 30 -85 2 -160 -40 -105 -160 -207
-181 -153 -5 13 58 89 66 81 9 -9 -6 51 -16 64 -18 22 -27 12 -27 -30 0 -41
-21 -78 -44 -78 -28 0 -96 117 -96 164 0 48 43 145 99 220 l58 79 -19 39 c-51
105 -91 150 -203 225 -34 23 -67 48 -74 57 -7 9 -18 16 -24 16 -20 0 -47 -34
-47 -59 l1 -26 12 23 c10 17 15 20 25 10 7 -7 12 -9 12 -5 0 4 8 -1 18 -10 10
-10 45 -36 76 -58 68 -47 111 -87 147 -135 46 -60 45 -75 -1 -127 -23 -26 -62
-89 -88 -141 -46 -92 -46 -93 -35 -147 13 -59 44 -111 117 -192 25 -28 46 -57
46 -64 -1 -31 -92 -130 -103 -112 -3 5 -21 48 -41 97 -65 156 -93 202 -183
298 -94 100 -115 137 -157 278 -33 113 -44 190 -48 340 l-3 124 130 28 c83 18
163 29 223 30 50 1 92 5 92 10 0 4 -40 8 -88 8 -66 0 -122 -8 -225 -34 -104
-25 -137 -30 -137 -20 0 20 32 37 171 93 135 55 303 103 464 132 117 22 206
18 310 -12z m-975 -256 c0 -74 32 -365 45 -418 23 -94 23 -95 -33 -95 -119 0
-206 69 -283 224 -33 66 -41 94 -41 139 0 31 5 64 12 72 7 8 35 21 64 30 28 8
82 24 119 35 38 11 76 24 85 30 27 15 32 12 32 -17z m1860 -174 c78 -57 190
-175 190 -201 0 -19 -105 -115 -180 -166 -63 -42 -170 -82 -220 -82 -22 0 -40
2 -40 5 0 3 15 51 34 107 19 57 51 159 71 228 20 69 38 133 41 143 8 27 29 21
104 -34z m-700 -697 c27 -22 39 -79 40 -189 0 -80 -1 -82 -39 -130 -54 -67
-165 -171 -234 -218 -47 -32 -68 -40 -118 -43 l-60 -4 50 93 c27 52 71 156 97
232 53 154 83 204 151 247 54 34 82 37 113 12z m-460 -811 c0 -5 -7 -12 -16
-15 -14 -5 -15 -4 -4 9 14 17 20 19 20 6z"/>
<path d="M872 2131 c-8 -5 4 -8 31 -9 24 -1 66 -9 93 -17 26 -8 50 -13 51 -11
9 9 -30 27 -77 36 -63 12 -81 12 -98 1z"/>
<path d="M1745 1995 c88 -17 116 -17 50 0 -27 7 -66 13 -85 13 -22 0 -10 -5
35 -13z"/>
<path d="M1425 1930 c-3 -5 -15 -10 -26 -10 -11 0 -56 -16 -100 -36 -77 -36
-79 -37 -62 -56 36 -40 53 -42 87 -11 17 16 50 42 73 57 23 15 49 36 59 47 16
18 16 19 -4 19 -11 0 -24 -4 -27 -10z m-63 -37 c-6 -2 -9 -10 -6 -15 4 -6 2
-8 -3 -5 -6 4 -13 0 -17 -8 -3 -8 -18 -15 -33 -15 -27 0 -27 1 12 25 22 13 45
24 50 24 6 0 4 -3 -3 -6z"/>
<path d="M1550 1887 c19 -13 71 -43 115 -67 44 -23 83 -47 87 -53 4 -6 10 -9
13 -5 12 11 -81 81 -152 114 -83 39 -113 44 -63 11z"/>
<path d="M690 1784 c-19 -6 -36 -17 -36 -23 -1 -6 -2 -16 -3 -22 0 -5 -6 -7
-11 -4 -6 4 -7 11 -4 17 4 7 2 8 -5 4 -9 -6 -9 -11 -1 -21 12 -15 3 -45 -15
-45 -13 0 -45 32 -45 45 0 4 10 0 22 -11 l21 -19 -18 28 c-23 35 -51 34 -86
-3 -34 -35 -37 -60 -9 -67 11 -3 20 -9 20 -14 0 -5 23 -9 50 -9 50 0 56 4 98
55 7 8 17 13 23 10 5 -3 -2 -16 -16 -29 -32 -30 -32 -33 8 -33 70 -2 117 27
117 71 0 19 -32 21 -63 5 -18 -9 -20 -9 -9 2 13 14 17 65 5 72 -5 2 -24 -2
-43 -9z m17 -48 c-2 -5 -14 -13 -28 -18 -22 -7 -22 -7 -6 6 13 10 15 15 5 19
-7 3 -3 4 10 4 12 -1 21 -6 19 -11z"/>
<path d="M1868 1743 c-9 -10 -16 -30 -16 -45 1 -30 -17 -58 -37 -58 -7 0 -11
10 -10 25 4 31 -11 33 -18 3 -3 -13 -8 -34 -12 -48 -6 -24 -6 -24 9 -6 12 15
19 17 28 8 13 -13 61 16 87 52 8 11 23 28 32 37 17 17 16 18 -6 33 -31 20 -38
20 -57 -1z m52 -16 c0 -14 -21 -36 -49 -52 -10 -6 -12 -2 -6 16 11 38 55 66
55 36z"/>
<path d="M1350 1714 c-54 -34 -73 -54 -51 -54 6 0 20 6 31 13 16 9 22 9 28 0
4 -7 17 -14 29 -16 12 -1 29 -9 38 -17 14 -11 98 -24 140 -21 51 4 79 11 85
22 19 30 -24 59 -57 39 -15 -10 -24 -6 -56 24 -21 20 -43 34 -48 31 -5 -3 -18
-1 -30 6 -15 8 -19 8 -15 0 4 -6 2 -11 -3 -11 -6 0 -11 5 -11 10 0 17 -23 9
-80 -26z m178 -41 c-6 -8 -19 -18 -29 -24 -15 -7 -17 -6 -13 5 3 9 11 14 17
13 7 -1 11 3 10 9 -1 6 5 11 12 11 11 0 12 -3 3 -14z m87 -23 c-3 -5 -11 -10
-16 -10 -6 0 -7 5 -4 10 3 6 11 10 16 10 6 0 7 -4 4 -10z"/>
<path d="M1933 1669 c-2 -26 -27 -50 -70 -69 -39 -18 -43 -40 -8 -40 28 0 61
29 74 63 18 48 22 67 14 67 -5 0 -9 -10 -10 -21z"/>
<path d="M1008 603 c7 -3 16 -2 19 1 4 3 -2 6 -13 5 -11 0 -14 -3 -6 -6z"/>
<path d="M356 1705 c-3 -8 -1 -15 4 -15 6 0 10 7 10 15 0 8 -2 15 -4 15 -2 0
-6 -7 -10 -15z"/>
<path d="M2183 1738 c-29 -5 -53 -14 -53 -18 0 -15 37 -30 85 -35 36 -4 46 -1
54 13 7 14 5 23 -10 35 -10 9 -20 16 -22 16 -1 -1 -26 -6 -54 -11z m67 -29
c18 -10 -49 -12 -75 -3 -13 5 -14 8 -3 15 13 8 52 3 78 -12z"/>
<path d="M1404 988 c-18 -20 -18 -21 -1 -15 10 4 23 7 28 7 5 0 9 7 9 15 0 21
-14 19 -36 -7z"/>
<path d="M1341 910 c-13 -11 -18 -20 -12 -20 21 0 11 -29 -21 -63 -18 -19 -40
-36 -48 -39 -8 -3 -12 -8 -9 -12 9 -9 90 39 123 73 49 51 20 105 -33 61z"/>
<path d="M1261 2493 c2 -70 6 -63 11 20 2 26 0 47 -4 47 -5 0 -7 -30 -7 -67z"/>
<path d="M1848 345 c-21 -14 -43 -35 -49 -48 -9 -16 -4 -14 21 11 19 17 39 32
46 32 7 0 14 5 16 11 2 7 13 9 26 4 18 -5 21 -10 12 -20 -10 -12 -7 -12 13 -2
20 9 22 14 11 24 -20 20 -56 15 -96 -12z"/>
<path d="M1890 339 c0 -5 5 -7 10 -4 6 3 10 8 10 11 0 2 -4 4 -10 4 -5 0 -10
-5 -10 -11z"/>
<path d="M1970 333 c0 -6 7 -16 16 -24 21 -18 46 -68 39 -79 -3 -6 1 -7 10 -4
11 5 14 2 9 -10 -4 -10 -13 -15 -21 -12 -8 4 -17 -4 -23 -18 -5 -14 -19 -26
-32 -29 -22 -4 -22 -4 3 -6 38 -2 114 84 102 117 -6 16 -30 16 -36 0 -4 -9 -6
-8 -6 3 -1 17 -61 79 -61 62z"/>
<path d="M1930 314 c0 -3 7 -12 15 -20 11 -11 13 -26 8 -56 -4 -28 -3 -39 5
-35 5 4 8 17 5 30 -5 21 -5 21 9 3 10 -13 17 -15 22 -8 4 7 2 12 -4 12 -7 0
-9 7 -6 16 3 8 2 13 -3 10 -5 -3 -12 5 -15 18 -5 20 -36 46 -36 30z"/>
<path d="M1825 210 c8 -28 24 -50 35 -50 14 0 -1 38 -22 57 -20 18 -21 18 -13
-7z"/>
<path d="M1744 168 c-12 -37 -7 -50 31 -78 19 -14 19 -14 5 3 -12 17 -12 20 0
27 43 24 51 39 13 20 -24 -11 -43 -16 -43 -11 0 5 4 11 10 13 6 2 7 15 2 32
l-8 29 -10 -35z"/>
<path d="M1893 152 l-22 -7 23 -11 c21 -10 25 -9 29 7 5 20 4 21 -30 11z"/>
<path d="M1905 100 c-3 -5 -1 -10 4 -10 6 0 11 5 11 10 0 6 -2 10 -4 10 -3 0
-8 -4 -11 -10z"/>
<path d="M1266 52 c-48 -27 -79 -63 -42 -49 10 4 22 7 27 7 6 0 7 5 4 10 -3 6
-1 10 4 10 18 0 26 3 39 17 7 7 18 13 25 13 6 0 2 -7 -9 -16 -18 -14 -18 -15
6 -8 22 6 23 5 11 -10 -22 -26 -9 -27 23 -1 25 20 28 26 17 39 -19 23 -49 19
-105 -12z"/>
<path d="M2130 10 c-13 -8 -12 -10 3 -10 9 0 17 5 17 10 0 12 -1 12 -20 0z"/>
<path d="M2171 9 c18 -11 39 -11 39 0 0 5 -12 9 -26 9 -18 0 -22 -3 -13 -9z"/>
</g>
</svg>
